<svg xmlns="http://www.w3.org/2000/svg" xmlns:xlink="http://www.w3.org/1999/xlink" width="309" zoomAndPan="magnify" viewBox="0 0 231.75 52.499999" height="70" preserveAspectRatio="xMidYMid meet" version="1.0"><defs><g/><clipPath id="d623a37104"><rect x="0" width="74" y="0" height="50"/></clipPath><clipPath id="7007f15c2f"><path d="M 30.433594 6.257812 L 53.464844 6.257812 L 53.464844 36.714844 L 30.433594 36.714844 Z M 30.433594 6.257812 " clip-rule="nonzero"/></clipPath><clipPath id="6846593ccc"><path d="M 33 14 L 50 14 L 50 36.714844 L 33 36.714844 Z M 33 14 " clip-rule="nonzero"/></clipPath><clipPath id="dcb7f552f7"><path d="M 37 25 L 47 25 L 47 36.714844 L 37 36.714844 Z M 37 25 " clip-rule="nonzero"/></clipPath><clipPath id="0aa35e74a2"><path d="M 39 30 L 45 30 L 45 36.714844 L 39 36.714844 Z M 39 30 " clip-rule="nonzero"/></clipPath></defs><g transform="matrix(1, 0, 0, 1, 62, 1)"><g clip-path="url(#d623a37104)"><g fill="#ffffff" fill-opacity="1"><g transform="translate(0.842487, 36.360723)"><g><path d="M 17.8125 -24.09375 L 17.8125 -19.390625 L 8 -19.390625 L 8 -14.3125 L 15.34375 -14.3125 L 15.34375 -9.75 L 8 -9.75 L 8 0 L 2.125 0 L 2.125 -24.09375 Z M 17.8125 -24.09375 "/></g></g></g><g fill="#ffffff" fill-opacity="1"><g transform="translate(19.619072, 36.360723)"><g><path d="M 8 -24.09375 L 8 0 L 2.125 0 L 2.125 -24.09375 Z M 8 -24.09375 "/></g></g></g><g fill="#ffffff" fill-opacity="1"><g transform="translate(29.745382, 36.360723)"><g><path d="M 14.421875 0 L 9.40625 -9.09375 L 8 -9.09375 L 8 0 L 2.125 0 L 2.125 -24.09375 L 11.984375 -24.09375 C 13.878906 -24.09375 15.492188 -23.757812 16.828125 -23.09375 C 18.171875 -22.4375 19.175781 -21.53125 19.84375 -20.375 C 20.507812 -19.21875 20.84375 -17.929688 20.84375 -16.515625 C 20.84375 -14.910156 20.390625 -13.476562 19.484375 -12.21875 C 18.578125 -10.957031 17.242188 -10.066406 15.484375 -9.546875 L 21.046875 0 Z M 8 -13.25 L 11.640625 -13.25 C 12.710938 -13.25 13.515625 -13.507812 14.046875 -14.03125 C 14.585938 -14.5625 14.859375 -15.304688 14.859375 -16.265625 C 14.859375 -17.179688 14.585938 -17.898438 14.046875 -18.421875 C 13.515625 -18.953125 12.710938 -19.21875 11.640625 -19.21875 L 8 -19.21875 Z M 8 -13.25 "/></g></g></g><g fill="#ffffff" fill-opacity="1"><g transform="translate(52.126281, 36.360723)"><g><path d="M 8 -19.390625 L 8 -14.515625 L 15.859375 -14.515625 L 15.859375 -9.984375 L 8 -9.984375 L 8 -4.703125 L 16.890625 -4.703125 L 16.890625 0 L 2.125 0 L 2.125 -24.09375 L 16.890625 -24.09375 L 16.890625 -19.390625 Z M 8 -19.390625 "/></g></g></g></g></g><g clip-path="url(#7007f15c2f)"><path fill="#ffffff" d="M 48.707031 34.453125 C 43.34375 38.417969 35.996094 37.261719 32.492188 32.550781 C 29.558594 28.605469 29.738281 22.734375 33.179688 18.503906 C 33.003906 18.929688 32.59375 20.058594 32.871094 21.472656 C 33.203125 23.144531 34.277344 24.117188 34.609375 24.394531 C 34.453125 23.5 34.414062 22.601562 34.488281 21.699219 C 34.566406 20.792969 34.753906 19.914062 35.054688 19.054688 C 35.351562 18.199219 35.757812 17.394531 36.261719 16.640625 C 36.769531 15.886719 37.359375 15.210938 38.039062 14.609375 C 38.410156 14.28125 38.746094 13.921875 39.046875 13.527344 C 39.839844 12.492188 40.347656 11.332031 40.566406 10.046875 C 40.789062 8.761719 40.695312 7.496094 40.289062 6.257812 C 40.984375 6.773438 42.855469 8.300781 43.761719 11.058594 C 44.214844 12.449219 44.347656 13.867188 44.164062 15.3125 C 43.976562 16.796875 44.292969 18.3125 45.105469 19.570312 C 45.816406 20.675781 46.679688 21.265625 47.421875 21.1875 C 48.296875 21.09375 48.910156 20.082031 48.988281 19.949219 C 49.875 18.453125 48.964844 16.816406 48.917969 16.742188 C 49.730469 17.378906 52.386719 19.632812 53.078125 23.46875 C 53.804688 27.488281 52.101562 31.691406 48.707031 34.453125 Z M 48.707031 34.453125 " fill-opacity="1" fill-rule="nonzero"/></g><g clip-path="url(#6846593ccc)"><path fill="#ffffff" d="M 42.390625 36.828125 C 39.046875 37.105469 35.90625 35.285156 34.585938 32.355469 C 33.105469 29.0625 34.214844 25.019531 37.308594 22.808594 C 37.039062 23.996094 37.464844 25.089844 38.269531 25.515625 C 38.3125 25.539062 39.015625 25.898438 39.59375 25.613281 C 40.425781 25.203125 40.761719 23.589844 40.097656 21.671875 C 39.78125 20.570312 39.710938 19.449219 39.882812 18.316406 C 40.179688 16.339844 41.15625 14.996094 41.636719 14.414062 C 41.539062 15.8125 41.78125 17.152344 42.359375 18.429688 C 43.335938 20.570312 44.960938 21.679688 45.613281 22.078125 C 49.597656 24.605469 50.941406 29.394531 49.199219 32.789062 C 47.296875 36.492188 42.59375 36.820312 42.390625 36.828125 Z M 42.390625 36.828125 " fill-opacity="1" fill-rule="nonzero"/></g><g clip-path="url(#dcb7f552f7)"><path fill="#4e3182" d="M 42.554688 36.792969 C 41.523438 36.9375 40.46875 36.765625 39.554688 36.265625 C 38.984375 35.957031 38.386719 35.480469 38.007812 34.746094 C 37.09375 32.980469 37.800781 30.414062 39.953125 28.929688 C 41.195312 27.988281 41.542969 27.171875 41.621094 26.589844 C 41.621094 26.589844 41.65625 26.351562 41.710938 25.082031 C 41.710938 25.078125 44.351562 26.238281 44.628906 28.085938 C 44.851562 29.585938 43.488281 31.371094 43.476562 31.398438 C 43.683594 31.398438 44.917969 31.359375 45.746094 30.363281 C 46.164062 29.855469 46.296875 29.316406 46.347656 29.023438 C 47.203125 32.039062 46.28125 34.953125 44.269531 36.1875 C 43.695312 36.539062 43.097656 36.714844 42.554688 36.792969 Z M 42.554688 36.792969 " fill-opacity="1" fill-rule="nonzero"/></g><g clip-path="url(#0aa35e74a2)"><path fill="#ffffff" d="M 41.226562 36.78125 C 41.433594 36.839844 42.152344 37.023438 42.921875 36.652344 C 43.089844 36.574219 43.796875 36.199219 44.054688 35.460938 C 44.386719 34.523438 43.964844 33.421875 43.023438 32.902344 C 42.800781 32.800781 42.601562 32.664062 42.421875 32.496094 C 42.246094 32.328125 42.101562 32.132812 41.988281 31.914062 C 41.875 31.699219 41.800781 31.46875 41.765625 31.226562 C 41.730469 30.984375 41.738281 30.742188 41.78125 30.5 C 41.605469 30.589844 39.480469 31.707031 39.328125 33.761719 C 39.304688 34.066406 39.230469 35.082031 39.921875 35.925781 C 40.269531 36.347656 40.703125 36.632812 41.226562 36.78125 Z M 41.226562 36.78125 " fill-opacity="1" fill-rule="nonzero"/></g><g fill="#ffffff" fill-opacity="1"><g transform="translate(142.19724, 36.525171)"><g><path d="M 11.71875 0.203125 C 9.789062 0.203125 8.015625 -0.25 6.390625 -1.15625 C 4.765625 -2.0625 3.476562 -3.328125 2.53125 -4.953125 C 1.582031 -6.578125 1.109375 -8.40625 1.109375 -10.4375 C 1.109375 -12.46875 1.582031 -14.289062 2.53125 -15.90625 C 3.476562 -17.519531 4.765625 -18.78125 6.390625 -19.6875 C 8.015625 -20.59375 9.789062 -21.046875 11.71875 -21.046875 C 13.675781 -21.046875 15.46875 -20.59375 17.09375 -19.6875 C 18.71875 -18.78125 20 -17.519531 20.9375 -15.90625 C 21.875 -14.289062 22.34375 -12.46875 22.34375 -10.4375 C 22.34375 -8.40625 21.875 -6.578125 20.9375 -4.953125 C 20 -3.328125 18.71875 -2.0625 17.09375 -1.15625 C 15.46875 -0.25 13.675781 0.203125 11.71875 0.203125 Z M 11.71875 -2.75 C 13.09375 -2.75 14.316406 -3.0625 15.390625 -3.6875 C 16.472656 -4.320312 17.316406 -5.222656 17.921875 -6.390625 C 18.535156 -7.554688 18.84375 -8.90625 18.84375 -10.4375 C 18.84375 -11.96875 18.535156 -13.3125 17.921875 -14.46875 C 17.316406 -15.625 16.472656 -16.507812 15.390625 -17.125 C 14.316406 -17.75 13.09375 -18.0625 11.71875 -18.0625 C 10.34375 -18.0625 9.117188 -17.75 8.046875 -17.125 C 6.972656 -16.507812 6.128906 -15.625 5.515625 -14.46875 C 4.910156 -13.3125 4.609375 -11.96875 4.609375 -10.4375 C 4.609375 -8.90625 4.910156 -7.554688 5.515625 -6.390625 C 6.128906 -5.222656 6.972656 -4.320312 8.046875 -3.6875 C 9.117188 -3.0625 10.34375 -2.75 11.71875 -2.75 Z M 11.71875 -2.75 "/></g></g></g><g fill="#ffffff" fill-opacity="1"><g transform="translate(170.87447, 36.525171)"><g><path d="M 9.09375 0.203125 C 7.695312 0.203125 6.441406 -0.0351562 5.328125 -0.515625 C 4.210938 -1.003906 3.332031 -1.695312 2.6875 -2.59375 C 2.050781 -3.5 1.734375 -4.546875 1.734375 -5.734375 L 5.390625 -5.734375 C 5.460938 -4.835938 5.8125 -4.097656 6.4375 -3.515625 C 7.070312 -2.941406 7.957031 -2.65625 9.09375 -2.65625 C 10.269531 -2.65625 11.1875 -2.9375 11.84375 -3.5 C 12.5 -4.070312 12.828125 -4.8125 12.828125 -5.71875 C 12.828125 -6.414062 12.625 -6.984375 12.21875 -7.421875 C 11.8125 -7.859375 11.300781 -8.195312 10.6875 -8.4375 C 10.082031 -8.675781 9.242188 -8.9375 8.171875 -9.21875 C 6.804688 -9.570312 5.703125 -9.929688 4.859375 -10.296875 C 4.015625 -10.671875 3.289062 -11.242188 2.6875 -12.015625 C 2.09375 -12.796875 1.796875 -13.832031 1.796875 -15.125 C 1.796875 -16.320312 2.09375 -17.367188 2.6875 -18.265625 C 3.289062 -19.171875 4.128906 -19.859375 5.203125 -20.328125 C 6.273438 -20.804688 7.519531 -21.046875 8.9375 -21.046875 C 10.957031 -21.046875 12.609375 -20.539062 13.890625 -19.53125 C 15.179688 -18.53125 15.894531 -17.15625 16.03125 -15.40625 L 12.265625 -15.40625 C 12.203125 -16.15625 11.84375 -16.800781 11.1875 -17.34375 C 10.53125 -17.882812 9.660156 -18.15625 8.578125 -18.15625 C 7.609375 -18.15625 6.8125 -17.90625 6.1875 -17.40625 C 5.570312 -16.90625 5.265625 -16.1875 5.265625 -15.25 C 5.265625 -14.613281 5.457031 -14.085938 5.84375 -13.671875 C 6.238281 -13.265625 6.734375 -12.941406 7.328125 -12.703125 C 7.921875 -12.460938 8.738281 -12.207031 9.78125 -11.9375 C 11.15625 -11.550781 12.273438 -11.171875 13.140625 -10.796875 C 14.003906 -10.421875 14.738281 -9.835938 15.34375 -9.046875 C 15.957031 -8.253906 16.265625 -7.203125 16.265625 -5.890625 C 16.265625 -4.835938 15.976562 -3.84375 15.40625 -2.90625 C 14.84375 -1.96875 14.015625 -1.210938 12.921875 -0.640625 C 11.835938 -0.078125 10.5625 0.203125 9.09375 0.203125 Z M 9.09375 0.203125 "/></g></g></g></svg>